<?xml version="1.0" standalone="no"?>
<!DOCTYPE svg PUBLIC "-//W3C//DTD SVG 20010904//EN"
 "http://www.w3.org/TR/2001/REC-SVG-20010904/DTD/svg10.dtd">
<svg version="1.0" xmlns="http://www.w3.org/2000/svg"
 width="512.000000pt" height="512.000000pt" viewBox="0 0 512.000000 512.000000"
 preserveAspectRatio="xMidYMid meet">

<g transform="translate(0.000000,512.000000) scale(0.100000,-0.100000)"
fill="#000000" stroke="none">
<path d="M409 5105 c-154 -38 -289 -145 -354 -282 -58 -120 -55 4 -55 -2261 0
-1850 2 -2091 16 -2150 46 -201 197 -351 399 -397 63 -14 287 -15 2175 -13
l2105 3 64 23 c175 63 304 206 346 383 22 95 23 4201 0 4295 -48 204 -195 351
-400 400 -88 20 -4211 19 -4296 -1z m182 -425 c10 -6 26 -24 34 -40 52 -100
-45 -197 -145 -145 -37 19 -50 43 -50 95 0 58 42 100 100 100 23 0 50 -5 61
-10z m423 -1 c39 -18 61 -73 47 -119 -16 -54 -44 -75 -101 -75 -57 0 -85 21
-101 75 -9 30 -8 44 5 72 10 20 27 40 39 46 30 14 80 15 111 1z m447 -18 c23
-23 29 -38 29 -71 0 -52 -13 -76 -50 -95 -100 -52 -197 45 -145 145 20 38 41
49 93 50 35 0 49 -6 73 -29z m3447 -2403 l-3 -1793 -26 -55 c-34 -72 -97 -136
-167 -168 l-57 -27 -2095 0 -2095 0 -55 26 c-72 34 -136 97 -168 167 l-27 57
-3 1793 -2 1792 2350 0 2350 0 -2 -1792z"/>
<path d="M935 2990 c-28 -11 -61 -50 -68 -79 -3 -13 0 -38 8 -55 7 -17 139
-157 294 -311 l281 -280 -280 -280 c-184 -184 -284 -293 -295 -317 -20 -50
-19 -101 4 -129 16 -20 28 -24 80 -24 l61 0 345 345 c224 224 346 353 350 370
3 15 1 40 -5 56 -14 37 -653 678 -696 699 -36 17 -50 18 -79 5z"/>
<path d="M1971 1906 c-65 -36 -66 -151 -2 -186 13 -6 218 -10 591 -10 373 0
578 4 591 10 24 13 49 61 49 95 0 38 -24 79 -55 93 -40 18 -1141 16 -1174 -2z"/>
</g>
</svg>
